<svg width="879" height="458" viewBox="0 0 879 458" fill="none" xmlns="http://www.w3.org/2000/svg">
<path fill-rule="evenodd" clip-rule="evenodd" d="M773.204 1.00576L696 11.5717V172L749.537 164.673V120.836L759.877 119.421L781.016 160.365L835.932 152.849L810.657 104.209C819.388 98.2711 826.128 90.8077 830.877 81.8188C835.626 72.83 838 62.3684 838 50.4338C838 31.4608 832.179 17.7983 820.537 9.44607C808.895 1.09382 793.118 -1.71959 773.204 1.00576ZM548 32.3152L667 16V61.7458L602.446 70.5963V84.6188L648.162 78.351V119.499L602.446 125.767V139.79L667 130.939V176.685L548 193V32.3152ZM379 54.5717L456.204 44.0058C476.118 41.2804 491.895 44.0938 503.537 52.4461C515.179 60.7983 521 74.4608 521 93.4338C521 112.407 515.179 127.662 503.537 139.201C491.895 150.74 476.118 157.872 456.204 160.597L433.456 163.711V207.547L379 215V54.5717ZM182 81.6586L240.126 172.773V234L294.576 226.554V165.327L355 58L297.104 65.9176L267.466 120.649L240.126 73.7096L182 81.6586ZM54.4459 99.4628L0 106.9V267L54.4459 259.563V203.447L98.5541 197.422V253.537L153 246.1V86L98.5541 93.4375V147.033L54.4459 153.058V99.4628ZM466 101.068C466 112.74 458.951 119.521 444.852 121.411L433 123V87.9839L444.852 86.3951C458.951 84.5051 466 89.396 466 101.068ZM762.146 78.3516C776.049 76.4648 783 69.6953 783 58.0428C783 46.3903 776.049 41.5076 762.146 43.3944L750 45.0428V80L762.146 78.3516ZM85.9429 285.831L0 297.649V458L89.6 445.679C99.6572 444.296 108.8 441.013 117.029 435.828C125.257 430.644 131.809 423.932 136.686 415.691C141.562 407.45 144 398.283 144 388.189C144 379.625 142.438 372.881 139.314 367.958C136.19 363.035 130.971 359.318 123.657 356.806C128.686 352.597 132.533 347.556 135.2 341.684C137.867 335.812 139.2 329.817 139.2 323.7C139.2 309.324 134.324 298.869 124.571 292.334C114.819 285.798 101.943 283.631 85.9429 285.831ZM70.5217 348.533C75.1643 347.879 78.5712 346.437 80.7428 344.208C82.9143 341.978 84 338.632 84 334.168C84 330.013 82.9143 327.164 80.7428 325.623C78.5712 324.082 75.1643 323.638 70.5217 324.292L53 326.759V351L70.5217 348.533ZM85.2767 406.163C82.7945 408.681 78.761 410.324 73.1761 411.091L52 414V386.238L73.1761 383.329C78.761 382.562 82.7945 383.136 85.2767 385.05C87.7589 386.964 89 390.332 89 395.153C89 399.975 87.7589 403.645 85.2767 406.163ZM251.115 426.991C234.761 429.23 219.975 427.742 206.755 422.527C193.535 417.312 183.104 408.928 175.462 397.375C167.821 385.822 164 371.875 164 355.534C164 339.193 167.821 324.161 175.462 310.439C183.104 296.717 193.535 285.439 206.755 276.604C219.975 267.769 234.761 262.232 251.115 259.993C267.315 257.775 282.025 259.273 295.245 264.488C308.465 269.704 318.896 278.126 326.538 289.755C334.179 301.385 338 315.37 338 331.711C338 348.052 334.179 363.045 326.538 376.691C318.896 390.336 308.465 401.577 295.245 410.412C282.025 419.247 267.315 424.773 251.115 426.991ZM273.989 363.689C267.982 370.373 260.357 374.349 251.116 375.617C241.874 376.885 234.211 375.006 228.126 369.98C222.042 364.954 219 357.43 219 347.405C219 337.381 222.004 329.027 228.011 322.342C234.018 315.658 241.72 311.671 251.116 310.382C260.357 309.115 267.982 310.999 273.989 316.035C279.996 321.071 283 328.602 283 338.626C283 348.65 279.996 357.004 273.989 363.689ZM368 247.458L422.253 240V354.837L482 346.624V392.329L368 408V247.458ZM561 221L506 228.458V389L561 381.542V221ZM683.925 364.614C665.201 367.163 648.78 366.196 634.661 361.713C620.541 357.23 609.568 349.498 601.741 338.515C593.914 327.533 590 313.883 590 297.565C590 281.094 593.683 266.028 601.05 252.367C608.417 238.706 618.699 227.508 631.898 218.771C645.097 210.035 660.29 204.497 677.479 202.157C694.668 199.817 709.862 201.027 723.061 205.788C736.259 210.548 746.504 218.495 753.794 229.626C761.084 240.758 764.729 254.559 764.729 271.03C764.729 278.198 762.925 286.259 759.319 295.214C755.712 304.17 751.376 311.28 746.312 316.544L781.467 310.999L799 346.472L683.925 364.614ZM700.989 305.689C694.982 312.373 687.357 316.349 678.116 317.617C668.874 318.885 661.211 317.006 655.126 311.98C649.042 306.954 646 299.43 646 289.405C646 279.381 649.004 271.027 655.011 264.342C661.018 257.658 668.72 253.671 678.116 252.382C687.357 251.115 694.982 252.999 700.989 258.035C706.996 263.071 710 270.602 710 280.626C710 290.65 706.996 299.004 700.989 305.689Z" fill="black"/>
<path d="M818.621 393.721H826.092V366.23H836.492V359.541H808.221V366.23H818.621V393.721ZM841.082 393.721H847.723V371.895H848.406L857.293 393.721H861.98L870.867 371.895H871.551V393.721H878.191V359.541H869.549L859.734 382.441H859.539L849.725 359.541H841.082V393.721Z" fill="black"/>
</svg>
